<?xml version="1.0" encoding="utf-8"?>
<!-- Generator: Adobe Illustrator 27.5.0, SVG Export Plug-In . SVG Version: 6.00 Build 0)  -->
<svg version="1.1" id="Layer_1" xmlns="http://www.w3.org/2000/svg" xmlns:xlink="http://www.w3.org/1999/xlink" x="0px" y="0px"
	 viewBox="0 0 3020 2716.026" style="enable-background:new 0 0 3020 2716.026;" xml:space="preserve">
<rect x="0" y="0" style="fill:#FFFFFF;" width="3020" height="2716.026"/>
<path d="M2225.923,1735.376c-2.025,0-4.075-0.232-6.133-0.722c-167.903-39.941-349.818-151.943-432.557-266.311
	c-8.551-11.82-5.9-28.334,5.92-36.885c11.826-8.544,28.334-5.9,36.885,5.92c74.846,103.471,247.656,209.172,401.979,245.883
	c14.193,3.379,22.956,17.617,19.584,31.81C2248.711,1727.206,2237.878,1735.376,2225.923,1735.376z"/>
<path style="fill-rule:evenodd;clip-rule:evenodd;fill:#B35853;" d="M2159.88,1908.547l53.674,14.419
	c14.981,4.024,30.387-4.857,34.412-19.838l85.6-304.708c4.025-14.981-4.857-30.387-19.838-34.412l-53.674-14.419
	c-14.98-4.025-30.387,4.857-34.412,19.838l-85.6,304.708C2136.017,1889.116,2144.899,1904.522,2159.88,1908.547z"/>
<polygon style="fill-rule:evenodd;clip-rule:evenodd;fill:#6C9DB4;" points="2341.899,1465.771 2314.482,1564.211 2257.486,1548.9 
	2284.904,1450.459 "/>
<path d="M2326.001,1584.394l-88.884-23.872l31.887-114.491c2.438-8.776,11.517-13.922,20.332-11.472
	c8.783,2.444,13.916,11.549,11.472,20.332l-22.95,82.391l25.11,6.745l23.027-82.688c2.444-8.776,11.523-13.929,20.332-11.472
	c8.783,2.444,13.916,11.549,11.471,20.332L2326.001,1584.394z"/>
<path d="M2220.912,1940.453c-3.882,0-7.79-0.509-11.639-1.548l-53.676-14.418c-23.743-6.378-37.871-30.888-31.494-54.637
	l85.641-304.886c3.05-11.33,10.433-20.938,20.751-26.883c10.324-5.958,22.337-7.532,33.847-4.43l53.67,14.419
	c23.749,6.377,37.878,30.888,31.494,54.631l-85.647,304.892c-3.044,11.323-10.427,20.938-20.744,26.883
	C2236.246,1938.435,2228.631,1940.453,2220.912,1940.453z M2252.767,1565.132c-5.107,0-9.795,3.418-11.188,8.583l-85.641,304.879
	c-1.605,5.99,2.057,12.355,8.222,14.012l53.676,14.419c6.178,1.625,12.529-2.012,14.187-8.177l85.647-304.892
	c0.755-2.805,0.348-5.926-1.199-8.609c-1.541-2.676-4.037-4.591-7.022-5.397l-53.676-14.418
	C2254.766,1565.261,2253.76,1565.132,2252.767,1565.132z"/>
<g>
	<circle style="fill-rule:evenodd;clip-rule:evenodd;fill:#FFFFFF;" cx="2392.209" cy="1201.991" r="261.055"/>
	<path d="M2392.149,1479.582c-23.781,0-47.918-3.076-71.951-9.537c-71.603-19.235-131.424-65.199-168.457-129.428
		c-37.027-64.232-46.822-139.037-27.586-210.636c19.236-71.603,65.199-131.427,129.432-168.454
		c64.226-37.03,139.033-46.825,210.636-27.593c71.603,19.235,131.424,65.203,168.457,129.435
		c37.027,64.229,46.822,139.037,27.586,210.636C2627.018,1397.778,2514.61,1479.582,2392.149,1479.582z M2391.813,957.341
		c-42.321,0-84.087,11.085-121.739,32.787c-56.591,32.625-97.087,85.331-114.04,148.416c-16.947,63.084-8.312,128.993,24.31,185.581
		c32.622,56.591,85.331,97.087,148.416,114.04c130.238,34.944,264.635-42.495,299.624-172.723
		c16.946-63.084,8.312-128.993-24.31-185.584c-32.623-56.591-85.332-97.09-148.416-114.036
		C2434.54,960.146,2413.106,957.341,2391.813,957.341z"/>
</g>
<ellipse transform="matrix(0.7071 -0.7071 0.7071 0.7071 -149.2744 2043.6027)" style="fill-rule:evenodd;clip-rule:evenodd;fill:#BFE7FB;" cx="2392.209" cy="1201.991" rx="196.716" ry="196.716"/>
<path style="fill-rule:evenodd;clip-rule:evenodd;fill:#E1F4FD;" d="M2298.281,1029.243c10.861-5.899,22.255-10.819,34.077-14.607
	l220.71,300.679c-6.965,9.884-14.851,18.952-23.395,27.278L2298.281,1029.243z"/>
<path style="fill-rule:evenodd;clip-rule:evenodd;fill:#E1F4FD;" d="M2510.933,1358.785c-19.434,14.694-41.478,25.749-65.012,32.453
	l-218.157-297.203c13.556-20.656,30.714-38.343,50.414-52.34L2510.933,1358.785z"/>
<path d="M2392.555,1415.311c-18.571,0-37.252-2.45-55.662-7.396c-113.543-30.501-181.109-147.697-150.602-261.243l0,0
	c14.773-55.005,50.084-100.962,99.427-129.406c49.343-28.45,106.824-35.972,161.809-21.199
	c113.543,30.507,181.109,147.7,150.602,261.243c-14.773,55.005-50.084,100.962-99.427,129.409
	C2465.879,1405.645,2429.453,1415.311,2392.555,1415.311z M2218.172,1155.235L2218.172,1155.235
	c-25.774,95.968,31.32,195.015,127.284,220.799c46.48,12.478,95.055,6.126,136.757-17.917s71.545-62.885,84.035-109.371
	c25.774-95.965-31.32-195.012-127.284-220.792c-46.48-12.487-95.049-6.129-136.757,17.913
	C2260.505,1069.907,2230.662,1108.752,2218.172,1155.235z"/>
<path style="fill-rule:evenodd;clip-rule:evenodd;" d="M2157.766,1675.046c-18.282,35.319-34.562,95.651,38.135,110.514
	c0,0,40.143,75.479,81.161,66.505c41.019-8.974,90.769-75.226,77.303-120.646c-11.474-38.701-47.207-69.604-87.802-89.987
	C2228.951,1622.548,2181.302,1629.575,2157.766,1675.046z"/>
<path d="M602.128,1987.185c-14.399,0-26.18-11.543-26.4-25.987c-0.122-7.964-1.57-196.359,120.968-313.275
	c68.349-65.212,160.974-94.662,275.191-87.543c14.56,0.909,25.626,13.445,24.72,28.005c-0.906,14.56-13.522,25.561-28.002,24.717
	c-98.841-6.152-177.969,18.339-235.208,72.822c-105.831,100.717-104.873,272.773-104.851,274.501
	c0.187,14.573-11.465,26.554-26.039,26.761C602.383,1987.185,602.254,1987.185,602.128,1987.185z"/>
<path d="M497.912,2064.626c12.422,5.94,27.28,0.686,33.212-11.746c6.22-13.024,14.369-23.011,22.327-30.554
	c0.473,0.522,0.899,1.078,1.39,1.588c-7.757,25.728-14.928,59.007-11.775,87.79c1.502,13.676,13.8,23.543,27.472,22.043
	c13.673-1.462,23.545-13.791,22.049-27.471c-1.96-17.886,2.189-40.423,7.715-60.444c1.181,0.135,2.341,0.326,3.539,0.409
	c0.068,0.005,0.135,0.001,0.202,0.004c2.008,25.308,6.956,55.05,18.556,78.466c6.11,12.327,21.049,17.363,33.38,11.26
	c12.315-6.092,17.367-21.051,11.261-33.38c-9.333-18.835-13.014-46.681-14.194-69.941c6.69-4.797,12.389-10.667,16.778-17.384
	c12.091,5.003,23.346,11.255,29.358,18.245c8.964,10.425,24.691,11.62,35.125,2.64c10.431-8.969,11.612-24.696,2.64-35.125
	c-15.19-17.662-40.055-29.325-60.327-36.449c-8.261-25.3-33.116-44.714-63.818-46.855c-37.056-2.583-69.252,20.884-74.882,53.325
	c-16.734,11.585-37.581,30.698-51.75,60.373C480.242,2043.829,485.5,2058.7,497.912,2064.626z"/>
<path style="fill:#D26F1A;" d="M1765.701,1219.939c28.584,0,55.319,20.943,59.715,46.774l95.585,561.516
	c4.396,25.834-15.21,46.774-43.794,46.774H794.503c-28.583,0-55.319-20.941-59.717-46.774l-95.855-563.121
	c-4.026-23.65,14.68-45.169,39.265-45.169H1765.701z"/>
<path d="M1877.207,1894.812H794.503c-38.397,0-73.205-27.786-79.247-63.259l-95.855-563.12
	c-2.863-16.827,1.851-34.002,12.926-47.125c11.365-13.461,28.083-21.18,45.87-21.18h1087.506c38.406,0,73.208,27.789,79.244,63.265
	l95.578,561.505c2.999,17.591-1.483,34.531-12.607,47.712C1916.007,1886.719,1897.526,1894.812,1877.207,1894.812z
	 M678.197,1239.747c-6.091,0-11.778,2.595-15.595,7.119c-2.076,2.46-5.378,7.67-4.143,14.918l95.855,563.114
	c2.795,16.424,21.202,30.294,40.19,30.294h1082.705c8.622,0,16.069-2.966,20.435-8.144c3.521-4.166,4.843-9.524,3.83-15.502
	l-95.584-561.508c-2.792-16.421-21.196-30.291-40.186-30.291H678.197z"/>
<g>
	<path style="fill:#D1EEFC;" d="M1886.792,1796.869H744.831c-6.672-59.839-1.169-695.897-1.169-695.897l-0.197-447.31
		c0-127.117-78.989-147.931-78.989-147.931s873.609,0,1058.177,0c184.567,0,163.963,147.931,163.963,147.931L1886.792,1796.869z"/>
	<path style="fill:#98C1D5;" d="M525.949,645.974v-41.94c0,0,6.294-105.157,126.533-98.302c78.206,4.459,90.79,98.402,90.79,98.402
		l0.193,53.554c0,0-191.626,0-205.803,0C523.485,657.688,525.949,645.974,525.949,645.974z"/>
	<path d="M743.464,674.196H537.661c-15.56,0-28.221-12.661-28.221-28.221v-41.94c0-8.309,1.006-16.379,2.986-23.985
		c8.46-32.468,35.376-87.43,120.604-90.812c9.021-0.364,16.788,6.729,17.149,15.84c0.361,9.112-6.732,16.788-15.84,17.15
		c-48.763,1.935-79.031,24.188-89.961,66.144c-1.277,4.891-1.922,10.163-1.922,15.663v37.146h201.009
		c9.118,0,16.508,7.39,16.508,16.508S752.582,674.196,743.464,674.196z"/>
	<path d="M1886.802,1813.375H744.831c-9.118,0-16.508-7.39-16.508-16.508c0-9.118,7.39-16.508,16.508-16.508h1141.972
		c9.118,0,16.508,7.39,16.508,16.508C1903.31,1805.986,1895.921,1813.375,1886.802,1813.375z"/>
	<path style="fill:#98C1D5;" d="M787.469,644.948l-0.143,1142.318h-42.508c-0.109-56.783-1.157-686.294-1.157-686.294l-0.197-447.31
		c0-127.117-78.989-147.931-78.989-147.931s30.487,0,78.436,0c50.354,44.176,44.557,139.209,44.557,139.209V644.948z"/>
	<path d="M743.661,1813.375c-9.115,0-16.505-7.39-16.508-16.501l-0.387-1181.549c0-51.329-41.757-93.086-93.082-93.086v-33.016
		H1730.52c59.473,0,104.986,16.108,135.281,47.873c37.865,39.706,37.504,89.558,37.323,95.384l0.181,1164.386
		c0,9.112-7.39,16.508-16.508,16.508c-9.112,0-16.508-7.39-16.508-16.508l-0.181-1165.066l0.019-0.393
		c0.013-0.329,1.199-40.966-28.534-71.854c-23.84-24.759-61.208-37.314-111.073-37.314H718.667
		c25.249,23.072,41.115,56.262,41.115,93.079l0.387,1181.542c0.003,9.118-7.387,16.514-16.501,16.514
		C743.664,1813.375,743.661,1813.375,743.661,1813.375z"/>
</g>
<path d="M1636.522,2203.618c-13.89,0-25.536-10.853-26.342-24.897l-27.896-485.505c-0.838-14.56,10.292-27.045,24.852-27.883
	c14.541-0.967,27.045,10.292,27.883,24.852l27.896,485.505c0.838,14.561-10.292,27.044-24.852,27.883
	C1637.547,2203.605,1637.031,2203.618,1636.522,2203.618z"/>
<path style="fill-rule:evenodd;clip-rule:evenodd;" d="M1680.828,2098.299l0.161,28.393c52.976,1.639,110.115,18.982,120.738,96.154
	l-223.063,1.505l-0.71-125.358L1680.828,2098.299z"/>
<path d="M1066.631,2203.618c-0.51,0-1.022-0.013-1.538-0.045c-14.564-0.832-25.69-13.316-24.855-27.883l27.892-485.505
	c0.838-14.56,13.287-25.748,27.886-24.852c14.564,0.832,25.69,13.316,24.855,27.883l-27.892,485.505
	C1092.169,2192.765,1080.524,2203.618,1066.631,2203.618z"/>
<path style="fill-rule:evenodd;clip-rule:evenodd;" d="M1022.327,2098.299l-0.161,28.393
	c-52.976,1.639-110.116,18.982-120.738,96.154l223.063,1.505l0.71-125.358L1022.327,2098.299z"/>
<g>
	<path style="fill:#F9A01B;" d="M1880.933,1875.004H798.228c-28.583,0-48.763-23.822-45.074-53.207l89.802-737.88
		c3.689-29.385,29.851-53.207,58.434-53.207h240.032c25.999,0,49.411,11.175,64.573,30.821l44.05,68.333h724.441
		c28.583,0,48.763,23.822,45.074,53.207l-80.193,638.726C1935.678,1851.183,1909.516,1875.004,1880.933,1875.004z"/>
	<path style="fill:#DA731C;" d="M1939.367,1821.798l6.28-50.023l-37.739-13.418c0,0-4.413,34.557-11.305,61.968H828.187
		c-13.861,0-22.823-10.172-21.047-23.888c0,0,73.387-592.504,87.49-710.793c3.672-42.423,34.566-54.935,34.566-54.935l-27.804-0.001
		l0,0c-28.584,0-54.745,23.823-58.435,53.206l-89.801,737.882c-3.688,29.386,16.491,53.206,45.075,53.206h1082.702
		C1909.516,1875.004,1935.678,1851.184,1939.367,1821.798z"/>
	<path style="fill:#FEBC11;" d="M1944.035,1777.908l75.526-594.835c3.688-29.386-16.493-53.209-45.074-53.209h-724.442
		l-44.051-68.332c-15.161-19.646-38.572-30.822-64.571-30.822H924.178c-14.292,0-30.17-1.52-40.744,8.109
		c-0.587,0.535-1.172,1.132-1.751,1.782c-14.63,16.42-7.292,37.569,11.992,37.569h231.526c14.321,0,26.425,5.821,33.533,16.127
		l49.829,68.658c7.018,10.176,18.97,15.923,33.11,15.923h690.214c17.03,0,28.134,12.369,26.201,29.185l-67.675,588.806
		c-1.699,14.938-9.748,58.395,29.47,51.907C1938.889,1845.631,1941.616,1797.18,1944.035,1777.908z"/>
	<path d="M1880.934,1894.812H798.227c-19.245,0-36.617-7.68-48.917-21.621c-12.558-14.238-18.32-33.867-15.808-53.863l89.79-737.804
		c4.975-39.635,39.277-70.623,78.099-70.623h240.031c32.106,0,61.356,14.041,80.256,38.526l0.967,1.37l38.197,59.257h713.645
		c19.242,0,36.614,7.68,48.917,21.621c12.555,14.235,18.32,33.867,15.811,53.863l-80.192,638.728
		C1954.053,1863.828,1919.747,1894.812,1880.934,1894.812z M901.391,1050.52c-18.581,0-36.34,16.424-38.781,35.863l-89.79,737.807
		c-1.122,8.925,1.083,16.991,6.197,22.789c4.675,5.301,11.497,8.215,19.21,8.215h1082.708c18.578,0,36.337-16.424,38.781-35.866
		l80.192-638.721c1.109-8.85-1.096-16.917-6.21-22.718c-4.675-5.297-11.497-8.215-19.21-8.215h-716.946
		c-11.459,0-21.815-5.455-27.705-14.596l-40.002-62.056c-11.356-14.312-28.953-22.502-48.411-22.502H901.391z"/>
</g>
<g>
	<path d="M1158.835,826.302v-58.168h-108.076v-28.199l97.415-142.765h53.301v138.184h30.88v32.78h-30.88v58.168H1158.835z
		 M1158.835,735.354v-62.397c0-13.038,0.367-26.437,1.47-39.836h-1.47c-7.354,14.456-13.601,26.093-20.955,38.779l-43.746,62.749
		l-0.368,0.705H1158.835z"/>
	<path d="M1424.951,710.327c0,73.673-30.146,119.852-87.125,119.852c-55.138,0-84.549-47.941-84.917-117.737
		c0-71.206,31.616-119.147,87.489-119.147C1398.113,593.294,1424.951,642.644,1424.951,710.327z M1298.493,712.441
		c-0.368,55.693,15.806,84.605,40.802,84.605c26.471,0,40.439-31.026,40.439-86.014c0-53.227-13.233-84.605-40.439-84.605
		C1315.034,626.427,1298.125,654.978,1298.493,712.441z"/>
	<path d="M1552.85,826.302v-58.168h-108.076v-28.199l97.415-142.765h53.301v138.184h30.881v32.78h-30.881v58.168H1552.85z
		 M1552.85,735.354v-62.397c0-13.038,0.368-26.437,1.47-39.836h-1.47c-7.354,14.456-13.601,26.093-20.955,38.779l-43.746,62.749
		l-0.367,0.705H1552.85z"/>
</g>
<g>
	<path d="M1052.216,916.361c0-7.184-0.134-13.214-0.535-18.604h14.419l0.802,9.37h0.397c2.806-4.877,9.88-10.78,20.696-10.78
		c11.346,0,23.093,7.056,23.093,26.805v37.073h-16.419v-35.271c0-8.978-3.47-15.777-12.415-15.777
		c-6.544,0-11.083,4.485-12.816,9.234c-0.535,1.409-0.668,3.332-0.668,5.134v36.68h-16.553V916.361z"/>
	<path d="M1190.4,928.414c0,22.961-16.82,33.22-33.374,33.22c-18.42,0-32.572-12.181-32.572-32.195
		c0-20.519,14.018-33.092,33.641-33.092C1177.455,896.347,1190.4,909.434,1190.4,928.414z M1141.409,929.055
		c0,12.061,6.138,21.167,16.152,21.167c9.346,0,15.885-8.85,15.885-21.424c0-9.747-4.535-20.903-15.751-20.903
		C1146.082,907.896,1141.409,918.668,1141.409,929.055z"/>
	<path d="M1222.722,879.929v17.828h15.618v11.805h-15.618v27.574c0,7.568,2.134,11.549,8.41,11.549c2.802,0,4.936-0.384,6.406-0.769
		l0.267,12.053c-2.401,0.897-6.673,1.538-11.88,1.538c-6.009,0-11.083-1.922-14.152-5.126c-3.47-3.596-5.074-9.242-5.074-17.451
		v-29.368h-9.346v-11.805h9.346v-14.103L1222.722,879.929z"/>
	<path d="M1280.274,960.225v-50.664h-8.811v-11.805h8.811v-2.691c0-8.081,2.268-16.162,7.876-21.295
		c4.807-4.357,11.346-6.023,16.954-6.023c4.406,0,7.876,0.641,10.544,1.538l-1.198,12.181c-1.737-0.641-4.009-1.153-6.944-1.153
		c-8.143,0-10.945,6.543-10.945,14.24v3.203h14.281v11.805h-14.148v50.664H1280.274z"/>
	<path d="M1381.334,928.414c0,22.961-16.821,33.22-33.374,33.22c-18.42,0-32.572-12.181-32.572-32.195
		c0-20.519,14.018-33.092,33.641-33.092C1368.385,896.347,1381.334,909.434,1381.334,928.414z M1332.343,929.055
		c0,12.061,6.143,21.167,16.152,21.167c9.346,0,15.885-8.85,15.885-21.424c0-9.747-4.539-20.903-15.751-20.903
		C1337.016,907.896,1332.343,918.668,1332.343,929.055z"/>
	<path d="M1453.038,941.501c0,7.44,0.267,13.591,0.535,18.725h-14.415l-0.802-9.49h-0.267c-2.806,4.485-9.212,10.9-20.825,10.9
		c-11.885,0-22.696-6.799-22.696-27.19v-36.688h16.42v33.997c0,10.387,3.47,17.059,12.148,17.059c6.544,0,10.815-4.493,12.548-8.465
		c0.535-1.418,0.935-3.083,0.935-4.877v-37.713h16.42V941.501z"/>
	<path d="M1470.811,916.361c0-7.184-0.134-13.214-0.534-18.604h14.419l0.798,9.37h0.401c2.806-4.877,9.88-10.78,20.696-10.78
		c11.346,0,23.093,7.056,23.093,26.805v37.073h-16.42v-35.271c0-8.978-3.47-15.777-12.415-15.777
		c-6.544,0-11.079,4.485-12.816,9.234c-0.534,1.409-0.668,3.332-0.668,5.134v36.68h-16.553V916.361z"/>
	<path d="M1607.124,869.157v73.497c0,6.415,0.267,13.335,0.535,17.571h-14.687l-0.668-9.875h-0.267
		c-3.871,6.928-11.747,11.284-21.226,11.284c-15.484,0-27.765-12.694-27.765-31.939c-0.134-20.903,13.484-33.349,29.102-33.349
		c8.945,0,15.355,3.596,18.29,8.209h0.267v-35.399H1607.124z M1590.704,923.801c0-1.289-0.134-2.827-0.401-4.109
		c-1.47-6.159-6.677-11.156-14.152-11.156c-10.544,0-16.42,8.978-16.42,20.647c0,11.421,5.875,19.758,16.286,19.758
		c6.677,0,12.548-4.365,14.152-11.164c0.401-1.409,0.535-2.947,0.535-4.613V923.801z"/>
</g>
<g>
	<g>
		
			<ellipse transform="matrix(0.9904 -0.1379 0.1379 0.9904 -200.8488 172.885)" style="fill-rule:evenodd;clip-rule:evenodd;fill:#EF569F;" cx="1147.3" cy="1535.984" rx="39.608" ry="21.785"/>
		
			<ellipse transform="matrix(0.1379 -0.9904 0.9904 0.1379 -120.0398 2934.0562)" style="fill-rule:evenodd;clip-rule:evenodd;fill:#EF569F;" cx="1625.414" cy="1535.984" rx="21.785" ry="39.608"/>
	</g>
	<g>
		<g>
			
				<ellipse transform="matrix(1 -0.0062 0.0062 1 -8.4515 9.6622)" style="fill-rule:evenodd;clip-rule:evenodd;" cx="1558.869" cy="1372.07" rx="58.261" ry="81.436"/>
			<path style="fill-rule:evenodd;clip-rule:evenodd;fill:#FFFFFF;" d="M1534.902,1325.489c-7.215,13.558-4.455,28.761,6.163,33.957
				c10.619,5.196,25.076-1.583,32.291-15.142c7.215-13.558,4.455-28.761-6.163-33.957
				C1556.573,1305.151,1542.116,1311.931,1534.902,1325.489z"/>
		</g>
		<g>
			
				<ellipse transform="matrix(1 -0.0062 0.0062 1 -8.4581 7.5426)" style="fill-rule:evenodd;clip-rule:evenodd;" cx="1215.977" cy="1372.07" rx="58.261" ry="81.436"/>
			
				<ellipse transform="matrix(0.5125 -0.8587 0.8587 0.5125 -555.7662 1690.9084)" style="fill-rule:evenodd;clip-rule:evenodd;fill:#FFFFFF;" cx="1211.237" cy="1334.897" rx="27.832" ry="21.375"/>
		</g>
	</g>
	<path d="M1234.385,1606.743c53.652-53.866,172.357-105.649,250.385-81.217c35.63,11.156,33.744,49.962,14.258,78.244
		c-0.629-23.02-14.956-42.966-37.763-44.725c-77.357-5.968-170.89,33.225-220.026,54.954
		C1235.156,1616.688,1228.853,1614.394,1234.385,1606.743z"/>
</g>
</svg>
